<?xml version="1.0" standalone="no"?><!DOCTYPE svg PUBLIC "-//W3C//DTD SVG 1.1//EN" "http://www.w3.org/Graphics/SVG/1.1/DTD/svg11.dtd"><svg class="icon" height="512" viewBox="0 0 1024 1024" version="1.1" xmlns="http://www.w3.org/2000/svg"><path d="M917.79 343.814c-34.346-81.611-89.955-148.599-159.959-195.901 5.001-6.275-71.886-48.934-157.897-66.56 30.425 3.602-27.389-8.684-88.070-8.689-57.39 0-114.794 11.408-168.096 33.423-81.657 34.453-148.667 90.179-195.954 160.304-6.149-5.349-48.78 71.379-66.396 157.231 3.539-29.998-8.736 27.929-8.751 88.719 0 57.108 11.433 114.61 33.399 167.718 34.595 81.898 90.473 149.117 160.775 196.606-5.545 5.782 71.471 48.527 157.622 66.239-30.885-3.873 27.041 8.412 87.837 8.426 57.202 0 114.655-11.433 167.764-33.423 82.196-34.852 149.67-90.986 197.392-161.568 4.791 6.574 47.339-70.175 64.88-156.027-3.339 30.060 8.993-27.747 8.999-88.434 0-57.36-11.433-114.788-33.546-168.067zM518.554 795.82c-103.644 0-220.274-63.764-261.683-172.846l-55.511 15.17c-3.083-7.865-3.714-16.772-0.461-24.467l34.758-80.877c5.558-13.010 19.346-16.772 30.802-8.447l71.094 51.87c6.723 4.928 10.704 12.938 12.087 21.335l-57.259 15.68c37.161 91.265 138.937 146.145 226.196 146.145 114.761 0 222.969-89.517 236.244-195.419l36.117 4.563c-15.486 123.184-140.223 227.289-272.387 227.289zM823.102 410.322l-34.758 80.851c-5.558 13.010-19.346 16.772-30.802 8.447l-71.094-51.87c-6.723-4.928-10.704-12.938-12.087-21.312l57.259-15.68c-37.161-91.29-138.937-146.145-226.172-146.145-114.785 0-222.992 89.493-236.27 195.419l-36.117-4.563c15.486-123.184 140.198-227.264 272.412-227.264 103.619 0 220.25 63.74 261.659 172.846l55.511-15.195c3.107 7.865 3.738 16.772 0.461 24.467z" fill="#13AE67" /></svg>